<?xml version="1.0" encoding="iso-8859-1"?>
<!-- Generator: Adobe Illustrator 22.1.0, SVG Export Plug-In . SVG Version: 6.00 Build 0)  -->
<svg version="1.1" id="Layer_1" xmlns="http://www.w3.org/2000/svg" xmlns:xlink="http://www.w3.org/1999/xlink" x="0px" y="0px"
	 viewBox="0 0 200 200" style="enable-background:new 0 0 200 200;" xml:space="preserve">
<circle style="fill:none;stroke:#D94F2B;stroke-width:3;stroke-miterlimit:10;" cx="100" cy="100" r="49.445"/>
<g>
	<path style="fill:#D94F2B;" d="M124.5,109.044c0-0.616,0.168-1.204,0.462-1.708c0.084-0.154,0.196-0.294,0.294-0.434
		c2.436-3.64,3.864-7.994,3.864-12.642c0.042-12.908-10.85-23.38-24.318-23.38c-11.746,0-21.546,7.994-23.842,18.606
		c-0.336,1.554-0.518,3.136-0.518,4.788c0,12.922,10.472,23.674,23.94,23.674c2.142,0,5.026-0.644,6.608-1.078
		c1.582-0.434,3.15-1.008,3.556-1.162c0.406-0.154,0.854-0.238,1.302-0.238c0.504,0,0.98,0.098,1.414,0.28l7.938,2.814
		c0,0,0.336,0.14,0.546,0.14c0.616,0,1.12-0.49,1.12-1.12c0-0.14-0.07-0.378-0.07-0.378L124.5,109.044z"/>
	<path style="fill:#D94F2B;" d="M108.75,119.11c-0.504,0.14-1.148,0.294-1.848,0.448c-1.47,0.308-3.346,0.63-4.76,0.63
		c-13.468,0-23.94-10.752-23.94-23.674c0-0.924,0.098-2.1,0.21-2.996c0.084-0.602,0.182-1.204,0.322-1.792
		c0.14-0.63,0.308-1.26,0.49-1.876l-1.12,0.994c-4.592,4.004-7.224,9.716-7.224,15.666c0,4.102,1.19,8.05,3.472,11.48
		c0.322,0.49,0.504,0.868,0.448,1.12s-1.666,8.68-1.666,8.68c-0.084,0.406,0.07,0.812,0.378,1.078
		c0.21,0.168,0.462,0.252,0.714,0.252c0.14,0,0.28-0.028,0.406-0.084l7.854-3.094c0.252-0.098,0.518-0.154,0.798-0.154
		c0,0,0.336-0.028,0.882,0.182c2.646,1.036,5.572,1.68,8.498,1.68c6.524,0,12.656-2.814,16.814-7.714c0,0,0.448-0.616,0.966-1.344
		C109.926,118.774,109.338,118.956,108.75,119.11L108.75,119.11z"/>
</g>
</svg>
