<svg id="Layer_2" data-name="Layer 2" xmlns="http://www.w3.org/2000/svg" viewBox="0 0 409.79 129"><defs><style>.cls-1{fill:none;stroke:#e45d2e;stroke-miterlimit:10;stroke-width:15px;}.cls-2{font-size:82.19px;font-family:Braggadocio, Braggadocio;}.cls-2,.cls-3{fill:#fff;}.cls-4{fill:#e45d2e;}</style></defs><title>logo-white</title><polyline class="cls-1" points="64.5 7.5 7.5 7.5 7.5 121.5 121.5 121.5 121.5 64.5"/><text class="cls-2" transform="translate(28.67 90.57) scale(1.08 1)">T</text><path class="cls-3" d="M179,57.36V61.9H162.26V75.6h14.05v4.54H162.26V98.08h19.55v4.55H148.72V57.36Z" transform="translate(-9.82 -8.46)"/><path class="cls-3" d="M201.33,57.36V98.08h19.18v4.55H187.8V57.36Z" transform="translate(-9.82 -8.46)"/><path class="cls-3" d="M255.34,57.36V61.9H238.63V75.6h14.05v4.54H238.63V98.08h19.55v4.55H225.1V57.36Z" transform="translate(-9.82 -8.46)"/><path class="cls-3" d="M298.28,57.36v45.27H287.92L268.44,74v28.66H263.9V57.36h8.58L293.74,88.3V57.36Z" transform="translate(-9.82 -8.46)"/><path class="cls-3" d="M321.39,57.36v45.27H307.86V57.36Z" transform="translate(-9.82 -8.46)"/><path class="cls-3" d="M366.31,57.36V87.74q0,15.62-17.81,15.62T330.77,87.74V57.36H344.3V88.14c0,4,.59,6.69,1.76,8.15s3.34,2.19,6.51,2.19q9.19,0,9.2-10.74V57.36Z" transform="translate(-9.82 -8.46)"/><path class="cls-3" d="M418.75,57.36v45.27H405.69V71.12l-9.09,31.51h-7.55l-9.33-31v31h-4.55V57.36h13.74l8,27.33,8-27.33Z" transform="translate(-9.82 -8.46)"/><path class="cls-4" d="M148,132.46v-17h9.14a56.69,56.69,0,0,1,6.68.24,8.83,8.83,0,0,1,4.14,1.69,4,4,0,0,1,1.62,3.31,4,4,0,0,1-1.4,3.09,8,8,0,0,1-3.52,1.75,35.21,35.21,0,0,1-7.26.51H153.7v6.41Zm5.67-14.12v4.83h3.15a26.9,26.9,0,0,0,4.31-.22,4.38,4.38,0,0,0,1.87-.79,1.74,1.74,0,0,0,0-2.85,4.38,4.38,0,0,0-1.85-.78,34.73,34.73,0,0,0-4.68-.19Z" transform="translate(-9.82 -8.46)"/><path class="cls-4" d="M197.53,132.46l-10.08-17h6.17L200.75,128l6.9-12.58h6l-10.1,17Z" transform="translate(-9.82 -8.46)"/><path class="cls-4" d="M238.94,132.46V118.34h-8.36v-2.88H253v2.88h-8.34v14.12Z" transform="translate(-9.82 -8.46)"/><path class="cls-4" d="M299.81,132.46V115.6h5.68v14h14.15v2.88Z" transform="translate(-9.82 -8.46)"/><path class="cls-4" d="M346.08,132.46V118.34h-8.37v-2.88h22.38v2.88h-8.34v14.12Z" transform="translate(-9.82 -8.46)"/><path class="cls-4" d="M379.78,115.46h10.38a29.94,29.94,0,0,1,5.93.44,11.77,11.77,0,0,1,3.69,1.46,7.61,7.61,0,0,1,2.64,2.68,8,8,0,0,1,1,4.09,7.18,7.18,0,0,1-1,3.84,7.8,7.8,0,0,1-2.56,2.58,12,12,0,0,1-3.73,1.43,27.1,27.1,0,0,1-5.63.48H379.78Zm5.67,2.88v11.24h4.27a21.87,21.87,0,0,0,4-.25,5.88,5.88,0,0,0,2-.77,3.77,3.77,0,0,0,1.3-1.63,7.09,7.09,0,0,0,.52-2.93,7,7,0,0,0-.53-3,3.92,3.92,0,0,0-1.64-1.71,7.32,7.32,0,0,0-2.71-.82,45.4,45.4,0,0,0-4.62-.15Z" transform="translate(-9.82 -8.46)"/><rect class="cls-4" x="136.74" y="29.3" width="273.05" height="5"/><rect class="cls-4" x="136.74" y="19.3" width="273.05" height="5"/><rect class="cls-4" x="136.74" y="4.44" width="273.05" height="10"/></svg>