<svg id="Layer_1" data-name="Layer 1" xmlns="http://www.w3.org/2000/svg" viewBox="0 0 409.79 129"><defs><style>.cls-1{fill:#e45d2e;}.cls-2{fill:#1b5aa9;}</style></defs><title>logo</title><polygon class="cls-1" points="129 129 0 129 0 0 64.5 0 64.5 15 15 15 15 114 114 114 114 64.5 129 64.5 129 129"/><path class="cls-2" d="M34.71,59.12V30.59h78.8V59L93.89,33.4h-.18V93.88H54.51V33.4h-.18Z" transform="translate(-2.05 -3.31)"/><path class="cls-2" d="M171.2,52.2v4.55H154.49v13.7h14V75h-14V92.93H174v4.55H141V52.2Z" transform="translate(-2.05 -3.31)"/><path class="cls-2" d="M193.56,52.2V92.93h19.18v4.55H180V52.2Z" transform="translate(-2.05 -3.31)"/><path class="cls-2" d="M247.57,52.2v4.55H230.86v13.7h14V75h-14V92.93h19.55v4.55H217.32V52.2Z" transform="translate(-2.05 -3.31)"/><path class="cls-2" d="M290.51,52.2V97.48H280.15L260.67,68.82V97.48h-4.55V52.2h8.58l21.26,31V52.2Z" transform="translate(-2.05 -3.31)"/><path class="cls-2" d="M313.62,52.2V97.48H300.09V52.2Z" transform="translate(-2.05 -3.31)"/><path class="cls-2" d="M358.54,52.2V82.58q0,15.63-17.81,15.62T323,82.58V52.2h13.54V83c0,4,.58,6.7,1.76,8.16s3.34,2.19,6.51,2.19q9.19,0,9.19-10.75V52.2Z" transform="translate(-2.05 -3.31)"/><path class="cls-2" d="M411,52.2V97.48H397.92V66l-9.09,31.51h-7.55l-9.34-31v31H367.4V52.2h13.74l8,27.33,8-27.33Z" transform="translate(-2.05 -3.31)"/><path class="cls-1" d="M140.26,127.31v-17h9.14a56.81,56.81,0,0,1,6.68.24,8.64,8.64,0,0,1,4.13,1.68,4,4,0,0,1,1.63,3.32,4,4,0,0,1-1.4,3.09,8.06,8.06,0,0,1-3.52,1.75,35.52,35.52,0,0,1-7.27.5h-3.72v6.42Zm5.67-14.13V118h3.15a26.9,26.9,0,0,0,4.31-.22,4.17,4.17,0,0,0,1.86-.8,1.72,1.72,0,0,0,.73-1.41,1.75,1.75,0,0,0-.75-1.43,4.13,4.13,0,0,0-1.86-.78,33.85,33.85,0,0,0-4.67-.2Z" transform="translate(-2.05 -3.31)"/><path class="cls-1" d="M189.76,127.31l-10.08-17h6.16L193,122.89l6.9-12.58h6.05l-10.11,17Z" transform="translate(-2.05 -3.31)"/><path class="cls-1" d="M231.17,127.31V113.18H222.8v-2.87h22.39v2.87h-8.35v14.13Z" transform="translate(-2.05 -3.31)"/><path class="cls-1" d="M292,127.31V110.45h5.67v14h14.16v2.88Z" transform="translate(-2.05 -3.31)"/><path class="cls-1" d="M338.31,127.31V113.18h-8.37v-2.87h22.38v2.87H344v14.13Z" transform="translate(-2.05 -3.31)"/><path class="cls-1" d="M372,110.31h10.37a30.28,30.28,0,0,1,5.94.43,11.73,11.73,0,0,1,3.68,1.47,7.56,7.56,0,0,1,2.65,2.68,8,8,0,0,1,1,4.09,7,7,0,0,1-1,3.83,7.68,7.68,0,0,1-2.55,2.58,11.8,11.8,0,0,1-3.73,1.44,27.1,27.1,0,0,1-5.63.48H372Zm5.67,2.87v11.25H382a21.87,21.87,0,0,0,4-.25,6,6,0,0,0,2-.77,3.9,3.9,0,0,0,1.3-1.63,7.1,7.1,0,0,0,.51-2.93,6.83,6.83,0,0,0-.53-3,3.76,3.76,0,0,0-1.64-1.71,7.4,7.4,0,0,0-2.7-.83,45.4,45.4,0,0,0-4.62-.15Z" transform="translate(-2.05 -3.31)"/><rect class="cls-1" x="136.74" y="29.3" width="273.05" height="5"/><rect class="cls-1" x="136.74" y="19.3" width="273.05" height="5"/><rect class="cls-1" x="136.74" y="4.44" width="273.05" height="10"/></svg>