<svg xmlns="http://www.w3.org/2000/svg" xmlns:xlink="http://www.w3.org/1999/xlink" viewBox="0 0 121.6 556.43"><defs><style>.cls-1,.cls-2{fill:none;}.cls-1,.cls-2,.cls-4,.cls-5{stroke:#231f20;stroke-miterlimit:10;}.cls-1{stroke-width:4px;}.cls-2{stroke-width:2px;}.cls-3{fill:#3d180d;}.cls-13,.cls-4{fill:#231f20;}.cls-27,.cls-5{fill:#fff;}.cls-6{fill:#124b89;}.cls-7{fill:#276fb7;}.cls-8{fill:#dd312a;}.cls-9{fill:#722a14;}.cls-10{fill:#a53d23;}.cls-11{fill:#fbb042;}.cls-12{fill:#af4e25;}.cls-14{fill:#736759;}.cls-15{fill:#e16225;}.cls-16{fill:#f68a40;}.cls-17{fill:#e03027;}.cls-18{fill:#f48888;}.cls-19{fill:#8d191c;}.cls-20{fill:#f7ad7c;}.cls-21{fill:#c2795b;}.cls-22{fill:#c8997e;}.cls-23{fill:#c57e5c;}.cls-24{fill:#542b19;}.cls-25{fill:url(#linear-gradient);}.cls-26{fill:#f8ddce;}.cls-28{fill:#a01f5f;}.cls-29{fill:#c2b69c;}.cls-30{fill:#f8ed33;}.cls-31{fill:#c17a2a;}.cls-32{font-size:5.92px;fill:#1b5aa9;font-family:Braggadocio, Braggadocio;}</style><linearGradient id="linear-gradient" x1="113.26" y1="270.84" x2="120.1" y2="270.84" gradientUnits="userSpaceOnUse"><stop offset="0" stop-color="#f1617d"/><stop offset="1" stop-color="#f7ad7c"/></linearGradient></defs><title>antenna</title><g id="Layer_2" data-name="Layer 2"><polyline class="cls-1" points="35.92 556.43 35.92 61 61.42 61 86.92 61"/><line class="cls-1" x1="61.42" y1="554" x2="61.42" y2="61"/><polyline class="cls-2" points="35.92 554 86.92 513 35.92 464 86.92 413 35.92 363 86.92 313 35.92 264 86.92 214 35.92 164 86.92 115 35.92 61 86.92 61 35.92 115 86.92 164 35.92 212 86.92 263 35.92 313 86.92 363 35.92 413 86.92 464 35.92 513 86.92 554"/><line class="cls-1" x1="35.92" y1="513" x2="86.92" y2="513"/><line class="cls-1" x1="86.92" y1="464" x2="35.92" y2="464"/><line class="cls-1" x1="35.92" y1="413" x2="86.92" y2="413"/><line class="cls-1" x1="86.92" y1="363" x2="35.92" y2="363"/><line class="cls-1" x1="35.92" y1="313" x2="86.92" y2="313"/><line class="cls-1" x1="86.92" y1="263" x2="35.92" y2="264"/><line class="cls-1" x1="35.92" y1="212" x2="86.92" y2="214"/><line class="cls-1" x1="86.92" y1="164" x2="35.92" y2="164"/><polyline class="cls-1" points="35.92 115 86.92 115 95.92 115 95.92 154 86.92 154"/><polyline class="cls-1" points="86.92 0 86.92 61 86.92 556.43"/><path id="_Path_" data-name="&lt;Path&gt;" class="cls-3" d="M88.09,385.47c-1.76-.66-2.77-1-4.57-.44,3.94,2.05,1.65.77,4.11,1.83" transform="translate(-16.14 -30.21)"/><g id="ladder"><polyline class="cls-2" points="69.92 554 69.92 540.33 69.92 61 78.92 61 78.92 554"/><line class="cls-2" x1="78.92" y1="539.67" x2="69.92" y2="539.67"/><line class="cls-2" x1="78.92" y1="525.67" x2="69.92" y2="525.67"/><line class="cls-2" x1="78.92" y1="511.67" x2="69.92" y2="511.67"/><line class="cls-2" x1="78.92" y1="497.67" x2="69.92" y2="497.67"/><line class="cls-2" x1="78.92" y1="483.67" x2="69.92" y2="483.67"/><line class="cls-2" x1="78.92" y1="469.67" x2="69.92" y2="469.67"/><line class="cls-2" x1="78.92" y1="455.67" x2="69.92" y2="455.67"/><line class="cls-2" x1="78.92" y1="441.67" x2="69.92" y2="441.67"/><line class="cls-2" x1="78.92" y1="427.67" x2="69.92" y2="427.67"/><line class="cls-2" x1="78.92" y1="413.67" x2="69.92" y2="413.67"/><line class="cls-2" x1="78.92" y1="399.67" x2="69.92" y2="399.67"/><line class="cls-2" x1="78.92" y1="385.67" x2="69.92" y2="385.67"/><line class="cls-2" x1="78.92" y1="371.67" x2="69.92" y2="371.67"/><line class="cls-2" x1="78.92" y1="357.67" x2="69.92" y2="357.67"/><line class="cls-2" x1="78.92" y1="343.67" x2="69.92" y2="343.67"/><line class="cls-2" x1="78.92" y1="329.67" x2="69.92" y2="329.67"/><line class="cls-2" x1="78.92" y1="315.67" x2="69.92" y2="315.67"/><line class="cls-2" x1="78.92" y1="301.67" x2="69.92" y2="301.67"/><line class="cls-2" x1="78.92" y1="287.67" x2="69.92" y2="287.67"/><line class="cls-2" x1="78.92" y1="273.67" x2="69.92" y2="273.67"/><line class="cls-2" x1="78.92" y1="259.67" x2="69.92" y2="259.67"/><line class="cls-2" x1="69.92" y1="245.67" x2="78.92" y2="245.67"/><line class="cls-2" x1="78.92" y1="231.67" x2="69.92" y2="231.67"/><line class="cls-2" x1="78.92" y1="217.67" x2="69.92" y2="217.67"/><line class="cls-2" x1="78.92" y1="203.67" x2="69.92" y2="203.67"/><line class="cls-2" x1="78.92" y1="189.67" x2="69.92" y2="189.67"/><line class="cls-2" x1="78.92" y1="175.67" x2="69.92" y2="175.67"/><line class="cls-2" x1="78.92" y1="161.67" x2="69.92" y2="161.67"/><line class="cls-2" x1="78.92" y1="147.67" x2="69.92" y2="147.67"/><line class="cls-2" x1="78.92" y1="133.67" x2="69.92" y2="133.67"/><line class="cls-2" x1="78.92" y1="119.67" x2="69.92" y2="119.67"/><line class="cls-2" x1="78.92" y1="105.67" x2="69.92" y2="105.67"/><line class="cls-2" x1="78.92" y1="91.67" x2="69.92" y2="91.67"/><line class="cls-2" x1="78.92" y1="77.67" x2="69.92" y2="77.67"/><line class="cls-2" x1="78.92" y1="63.67" x2="69.92" y2="63.67"/></g><polyline class="cls-2" points="86.92 202 95.92 202 95.92 279 86.92 279"/><polyline class="cls-2" points="35.92 329.67 26.92 329.67 26.92 295 35.92 295"/><polyline class="cls-2" points="35.92 200 26.92 200 26.92 282 35.92 282"/><polyline class="cls-2" points="35.92 126 26.92 126 26.92 182 35.92 182"/></g><g id="mw-antenna"><path class="cls-4" d="M53.49,159.21H41v50h12.5a25,25,0,0,0,0-50Z" transform="translate(-16.14 -30.21)"/><circle class="cls-5" cx="25.5" cy="154" r="25"/></g><g id="antenna"><g id="antenna1"><rect class="cls-4" x="11.22" y="201.67" width="7" height="77.67"/><line class="cls-4" x1="18.22" y1="273.67" x2="27.22" y2="273.67"/><polyline class="cls-2" points="14.22 209.67 20.22 219 26.22 209.67"/></g><g id="antenna2"><rect class="cls-4" x="120.57" y="232.37" width="7" height="77.67" transform="translate(231.99 512.21) rotate(180)"/><line class="cls-4" x1="104.42" y1="274.17" x2="95.42" y2="274.17"/><polyline class="cls-2" points="108.42 210.17 102.42 219.5 96.42 210.17"/></g><rect id="antenna3" class="cls-4" x="70.99" y="232.87" width="7" height="77.67" transform="translate(132.84 513.21) rotate(180)"/></g><g id="technician"><g id="_Group_" data-name="&lt;Group&gt;"><g id="_Group_2" data-name="&lt;Group&gt;"><g id="_Group_3" data-name="&lt;Group&gt;"><path id="_Path_2" data-name="&lt;Path&gt;" class="cls-3" d="M87.12,385.43c-.11.36,0,1.34-.08,1.11,3.94,2.06,1.87,1.46,6.13,2.77a.64.64,0,0,0,.45,0,.58.58,0,0,0,.27-.34,14.82,14.82,0,0,0,.64-1.6c.12-.35.2-.8-.09-1a.92.92,0,0,0-.44-.15c-1.16-.14-2.13.13-3.26,0C89.18,386,87.26,385,87.12,385.43Z" transform="translate(-16.14 -30.21)"/><path id="_Path_3" data-name="&lt;Path&gt;" class="cls-6" d="M107.36,320.08c-3.33,9.66-6.68,19.44-7.53,29.62a43.58,43.58,0,0,1-.55,5c-.52,2.53-1.64,4.89-2.22,7.4a59.08,59.08,0,0,0-.86,6.77,46.54,46.54,0,0,1-5.26,16.81,5,5,0,0,0,3.36,2.13c3.47-5,7-10.28,8.54-16.18.43-1.61.7-3.26,1.13-4.87,1.85-6.91,6.44-12.69,10.07-18.86a73.76,73.76,0,0,0,9-24.53Z" transform="translate(-16.14 -30.21)"/><g id="_Group_4" data-name="&lt;Group&gt;"><path id="_Path_4" data-name="&lt;Path&gt;" class="cls-7" d="M96.79,372.45c.76-3.55.53-7.27,1.41-10.79.46-1.81,1.19-3.52,1.76-5.29a53.2,53.2,0,0,0,1.68-7.4c1.68-9.68,2.8-19.65,6.3-28.77l-.58-.12c-3.33,9.66-6.68,19.44-7.53,29.62a43.58,43.58,0,0,1-.55,5c-.52,2.53-1.64,4.89-2.22,7.4a59.08,59.08,0,0,0-.86,6.77,46.54,46.54,0,0,1-5.26,16.81c.09.13.18.25.28.37.09-.23.17-.45.26-.67C93.26,381.05,95.81,377,96.79,372.45Z" transform="translate(-16.14 -30.21)"/></g><path id="_Path_5" data-name="&lt;Path&gt;" class="cls-8" d="M127.91,330.55c.06,2.95-.28,6-1.91,8.5a141,141,0,0,0,.85-19.49l1,.58c-.28-.17-.08,1.81-.07,1.95,0,.9-.1,1.84-.08,2.76C127.68,326.75,127.87,328.65,127.91,330.55Z" transform="translate(-16.14 -30.21)"/><path id="_Path_6" data-name="&lt;Path&gt;" class="cls-3" d="M125.37,324.77a25,25,0,0,0,3,.06,32.9,32.9,0,0,1-.09,7.81,15.4,15.4,0,0,1-2.82.81Z" transform="translate(-16.14 -30.21)"/><path id="_Path_7" data-name="&lt;Path&gt;" class="cls-3" d="M104.66,315.7a6.14,6.14,0,0,0-1.53,2.34,16.38,16.38,0,0,0-1.29,5.48,12.13,12.13,0,0,0,2.44,1.67,4,4,0,0,0,2.9.1c.17.11.13-.24.23-.42a16.75,16.75,0,0,0,1.94-6.55,3.22,3.22,0,0,0-.16-1.9,2.3,2.3,0,0,0-2-1.09C106.41,315.3,105.25,315.18,104.66,315.7Z" transform="translate(-16.14 -30.21)"/><path id="_Path_8" data-name="&lt;Path&gt;" class="cls-9" d="M106.49,317.59c-.93,1.72-1.88,3.53-1.83,5.48a3.92,3.92,0,0,0,1.56,1.41,1.77,1.77,0,0,0,1.06.13,2,2,0,0,0,1-.75A10.23,10.23,0,0,0,110,319a1.81,1.81,0,0,0-.27-1.66,1.57,1.57,0,0,0-1-.35,8.15,8.15,0,0,0-1.78,0C106.71,317.06,106.41,317.37,106.49,317.59Z" transform="translate(-16.14 -30.21)"/><path id="_Path_9" data-name="&lt;Path&gt;" class="cls-10" d="M117.88,325.18a6.27,6.27,0,0,1-3.33.05,44.57,44.57,0,0,1-9-2.56,24.41,24.41,0,0,1,1.43-4.25c.08-.17.19-.37.37-.38,3.85-.26,7.4,2.75,11.23,3.24C118.25,322.54,118.21,323.91,117.88,325.18Z" transform="translate(-16.14 -30.21)"/><path id="_Path_10" data-name="&lt;Path&gt;" class="cls-3" d="M116.22,331.42a5.45,5.45,0,0,1-2.5-1.08,77.93,77.93,0,0,1,.84-11.62c.56-.16,1,.93,1.59.9Z" transform="translate(-16.14 -30.21)"/><path id="_Path_11" data-name="&lt;Path&gt;" class="cls-9" d="M126.4,321.22A69.69,69.69,0,0,1,115.23,318c-.4,4.36-.68,9.64-.84,14A20.09,20.09,0,0,0,126,334.07Z" transform="translate(-16.14 -30.21)"/><path id="_Path_12" data-name="&lt;Path&gt;" class="cls-11" d="M120.35,320.87a16.32,16.32,0,0,1-.14,5.87,1.78,1.78,0,0,1-.33.83,1.89,1.89,0,0,1-1.26.49,1.55,1.55,0,0,1-2-1.78,25.8,25.8,0,0,1,.07-5.76.51.51,0,0,1,.63.3c-.07,1.76-.12,3.37-.19,5.13a1.52,1.52,0,0,0,.16.9,1.34,1.34,0,0,0,1.47.28,1.28,1.28,0,0,0,.54-.25,1.35,1.35,0,0,0,.37-.72,10.56,10.56,0,0,0,0-5.12A.85.85,0,0,0,120.35,320.87Z" transform="translate(-16.14 -30.21)"/><path id="_Path_13" data-name="&lt;Path&gt;" class="cls-3" d="M120.8,325.21a82.84,82.84,0,0,1-.64,8.91.41.41,0,0,0,0,.31.44.44,0,0,0,.18.15,5.65,5.65,0,0,0,4.45-.12.56.56,0,0,0,.27-.15.64.64,0,0,0,.13-.4l.66-6.92a1,1,0,0,0-.06-.56.34.34,0,0,0-.48-.14Z" transform="translate(-16.14 -30.21)"/><path id="_Path_14" data-name="&lt;Path&gt;" class="cls-12" d="M95.21,294.32a3.08,3.08,0,0,0,.46-1,11,11,0,0,0,.31-1.71A4.2,4.2,0,0,0,96,290a1.65,1.65,0,0,0-1-1.19,2.1,2.1,0,0,0-1.83.57c-1.07.86-2.8,3.07-2.17,4.58S94.28,295.6,95.21,294.32Z" transform="translate(-16.14 -30.21)"/><path id="_Path_15" data-name="&lt;Path&gt;" class="cls-13" d="M100.54,284c-3.24,3.93-7,8.7-10.34,12.69a1.19,1.19,0,0,1-1.66.16l0,0a1.19,1.19,0,0,1-.14-1.7q5.4-6.18,10.59-12.55a2.23,2.23,0,0,1-.75-2,3,3,0,0,1,1-1.85,1.74,1.74,0,0,1,.46-.3,1.37,1.37,0,0,1,.85,0,2.76,2.76,0,0,1,1.26.72,15.45,15.45,0,0,0-1.64,1.88c.09.28.17.6.26.87a5,5,0,0,1,1.22.08,6.84,6.84,0,0,1,1.73-1.43,2.36,2.36,0,0,1,.12,2.85A2.63,2.63,0,0,1,100.54,284Z" transform="translate(-16.14 -30.21)"/><path id="_Path_16" data-name="&lt;Path&gt;" class="cls-14" d="M95.77,286.43q-3.15,3.79-6.39,7.51a11,11,0,0,0,1.93,1.41c2-2.46,4.17-5.13,6.22-7.67A20,20,0,0,0,95.77,286.43Z" transform="translate(-16.14 -30.21)"/><path id="_Path_17" data-name="&lt;Path&gt;" class="cls-15" d="M90.7,292.08l-.43-.08a1.18,1.18,0,0,0-1,.79.5.5,0,0,0,0,.21.62.62,0,0,0,.1.24,2.73,2.73,0,0,0,2.36,1.25.37.37,0,0,0,.25-.07.38.38,0,0,0,.09-.18A1.8,1.8,0,0,0,90.7,292.08Z" transform="translate(-16.14 -30.21)"/><path id="_Path_18" data-name="&lt;Path&gt;" class="cls-16" d="M90.7,292.08l-.43-.08a.9.9,0,0,0-.4.09,2.6,2.6,0,0,1,1.7,2.4h.08a.37.37,0,0,0,.25-.07.38.38,0,0,0,.09-.18A1.8,1.8,0,0,0,90.7,292.08Z" transform="translate(-16.14 -30.21)"/><path id="_Path_19" data-name="&lt;Path&gt;" class="cls-15" d="M91.63,292.82a.69.69,0,0,0,.32,0,.56.56,0,0,0,.25-.18,1.65,1.65,0,0,0,.25-2.31,1.91,1.91,0,0,0-2-.6,1.81,1.81,0,0,0-.93,2.08C89.86,292.47,91,292.73,91.63,292.82Z" transform="translate(-16.14 -30.21)"/><path id="_Path_20" data-name="&lt;Path&gt;" class="cls-16" d="M92.45,290.31a1.91,1.91,0,0,0-2-.6,1.17,1.17,0,0,0-.28.17c1,.74,1.91,1.57,1.5,2.94a.57.57,0,0,0,.26,0,.56.56,0,0,0,.25-.18A1.65,1.65,0,0,0,92.45,290.31Z" transform="translate(-16.14 -30.21)"/><path id="_Path_21" data-name="&lt;Path&gt;" class="cls-15" d="M98.16,310.82c-1.23-.54-2.63.06-3.84.64a2,2,0,0,0-1,.84,1.74,1.74,0,0,0-.12.75,7.56,7.56,0,0,0,.45,2.4,2.67,2.67,0,0,0,.64,1.06,1.19,1.19,0,0,0,1.14.31,5.62,5.62,0,0,0,.64-.34c.89-.44,1.91.17,2.88.39s3,.19,3.7-.48c.52-.52.56-2.33.37-3a2.06,2.06,0,0,0-1.47-1.49A35.17,35.17,0,0,1,98.16,310.82Z" transform="translate(-16.14 -30.21)"/><path id="_Path_22" data-name="&lt;Path&gt;" class="cls-16" d="M101.52,311.87a35.17,35.17,0,0,1-3.36-1.05c-1.23-.54-2.63.06-3.84.64a2,2,0,0,0-1,.84,1.74,1.74,0,0,0-.12.75,7.56,7.56,0,0,0,.45,2.4,2.67,2.67,0,0,0,.64,1.06,1.21,1.21,0,0,0,.32.22c-.8-2.32-.77-4.6,2.29-5.37V315c.6-.9.3-2.4.9-2.7,1.71-.93,3.34-.25,5,.58A2.16,2.16,0,0,0,101.52,311.87Z" transform="translate(-16.14 -30.21)"/><path id="_Path_23" data-name="&lt;Path&gt;" class="cls-17" d="M117.19,290.08l-10,10.5a2.6,2.6,0,0,1-1.28.9,2.67,2.67,0,0,1-2-.76A55.06,55.06,0,0,1,97.53,295a18,18,0,0,1-2.72,4.3c.59,1.55,1.25,3,2,4.48a17.14,17.14,0,0,0,4.42,6.3c2,1.62,4.93,2.38,7.26,1.26,1.9-.91,3.07-2.82,4.1-4.66a76.19,76.19,0,0,0,6.1-13.62,3.69,3.69,0,0,0,.23-2C118.7,290.36,117.67,289.58,117.19,290.08Z" transform="translate(-16.14 -30.21)"/><g id="_Group_5" data-name="&lt;Group&gt;"><path id="_Path_24" data-name="&lt;Path&gt;" class="cls-18" d="M106.52,302.1a44.66,44.66,0,0,0,7.54-8.13c.34-.52.65-1.05,1-1.59l-7.77,8.2a2.6,2.6,0,0,1-1.28.9,1.63,1.63,0,0,1-.9-.08,28.28,28.28,0,0,1,2.06,3.59A5.11,5.11,0,0,0,106.52,302.1Z" transform="translate(-16.14 -30.21)"/></g><path id="_Path_25" data-name="&lt;Path&gt;" class="cls-19" d="M107.36,309.75l3-2a8,8,0,0,0,2.11-1.72,7.1,7.1,0,0,0,1.06-2.28,25.34,25.34,0,0,0,1.38-8.83C111.3,293.67,107.86,307.27,107.36,309.75Z" transform="translate(-16.14 -30.21)"/><path id="_Path_26" data-name="&lt;Path&gt;" class="cls-19" d="M106.17,308.06c-2.8,1.25-5.68.39-8-1.55a13.2,13.2,0,0,0,3,3.57c2,1.62,4.93,2.38,7.26,1.26,1.9-.91,3.07-2.82,4.1-4.66a83.44,83.44,0,0,0,4.84-10.09C114.63,301.42,111.13,305.67,106.17,308.06Z" transform="translate(-16.14 -30.21)"/><path id="_Path_27" data-name="&lt;Path&gt;" class="cls-17" d="M127.15,317.86a53.16,53.16,0,0,1-12.34.85,18.44,18.44,0,0,1-7.39-1.59,1.21,1.21,0,0,1-.67-.58,1.3,1.3,0,0,1,0-.78q1.27-5.92,2.9-11.78a42.18,42.18,0,0,1,2.62-7.42c2.37-4.78,6.28-8.58,10.13-12.28,1.9-1.83,5-2,7.59-2.68A90.45,90.45,0,0,1,127.15,317.86Z" transform="translate(-16.14 -30.21)"/><path id="_Path_28" data-name="&lt;Path&gt;" class="cls-19" d="M130,281.6c-2.54.71-5.69.85-7.59,2.68-1.28,1.23-2.57,2.48-3.81,3.77a47.37,47.37,0,0,0,11.71-3.66C130.22,283.46,130.12,282.52,130,281.6Z" transform="translate(-16.14 -30.21)"/><path id="_Path_29" data-name="&lt;Path&gt;" class="cls-20" d="M125.22,276.64a19.55,19.55,0,0,1-.31,6.82,19.79,19.79,0,0,0,3.53-.29c.3-3.75.54-7.4.78-11.16A51.87,51.87,0,0,0,125.22,276.64Z" transform="translate(-16.14 -30.21)"/><path id="_Path_30" data-name="&lt;Path&gt;" class="cls-21" d="M129.22,272a51.87,51.87,0,0,0-4,4.63,20,20,0,0,1,.16,2.05c1.21-.38,2.37-.77,3.48-1.24C129,275.65,129.1,273.84,129.22,272Z" transform="translate(-16.14 -30.21)"/><path id="_Path_31" data-name="&lt;Path&gt;" class="cls-20" d="M114.54,276.83a5.36,5.36,0,0,0,0,3.62c.81,1.63,3.06,1.89,4.82,1.46,4.32-1.05,7.46-4.71,9.94-8.4a17.63,17.63,0,0,0,1.68-3,19.79,19.79,0,0,0,1-4c.44-2.46.79-5.3-.86-7.17a7.25,7.25,0,0,0-3.69-1.93,13.82,13.82,0,0,0-6.9-.32,7.9,7.9,0,0,0-4.18,2.61,4.52,4.52,0,0,0-1.11,4.17A38.93,38.93,0,0,1,114.54,276.83Z" transform="translate(-16.14 -30.21)"/><g id="_Group_6" data-name="&lt;Group&gt;"><path id="_Path_32" data-name="&lt;Path&gt;" class="cls-22" d="M126.94,270.07a23,23,0,0,1-11,2.83c-.2,1.08,0,2.2-.15,3.29-.19,1.69-1.09,3.36-.76,5a4.86,4.86,0,0,0,4.28.73,14.24,14.24,0,0,0,7.07-4.66A36.67,36.67,0,0,0,126.94,270.07Z" transform="translate(-16.14 -30.21)"/></g><path id="_Path_33" data-name="&lt;Path&gt;" class="cls-23" d="M132,266.5c.44-2.46.78-5.29-.87-7.16a7.18,7.18,0,0,0-3.68-1.93,13.82,13.82,0,0,0-6.9-.32,7.9,7.9,0,0,0-4.18,2.61,4.52,4.52,0,0,0-1.11,4.17c0,.31.07.61.09.92A60.42,60.42,0,0,1,132,266.5Z" transform="translate(-16.14 -30.21)"/><path id="_Path_34" data-name="&lt;Path&gt;" class="cls-24" d="M122.39,267.81a6.38,6.38,0,0,1,0,1.69c0,.21,0,.48.16.56s.36-.12.44-.3a2.53,2.53,0,0,0,.15-.82c0-.54.07-1.08.06-1.61a1.18,1.18,0,0,0-.46-1.08C122,265.91,122.36,267.53,122.39,267.81Z" transform="translate(-16.14 -30.21)"/><path id="_Path_35" data-name="&lt;Path&gt;" class="cls-24" d="M117.18,270.12a.32.32,0,0,0,0,.14.22.22,0,0,0,.32.05.54.54,0,0,0,.2-.31,4.79,4.79,0,0,0,.17-1.26,5.38,5.38,0,0,0-.09-1.65c-.07-.23-.29-.74-.62-.64s-.21.76-.19,1Z" transform="translate(-16.14 -30.21)"/><path id="_Path_36" data-name="&lt;Path&gt;" class="cls-24" d="M122.64,264.62a4,4,0,0,1,2.26.32,2.07,2.07,0,0,0-1.84-.84c-.43,0-2.65.08-2.58.73S122.31,264.7,122.64,264.62Z" transform="translate(-16.14 -30.21)"/><path id="_Path_37" data-name="&lt;Path&gt;" class="cls-24" d="M117.5,265.09a1.17,1.17,0,0,0,.49,0,.33.33,0,0,0,.25-.37c0-.17-.27-.22-.45-.24a5.93,5.93,0,0,0-1.63,0,2,2,0,0,0-1.35.83,5.2,5.2,0,0,0,1.08-.21A4.83,4.83,0,0,1,117.5,265.09Z" transform="translate(-16.14 -30.21)"/><path id="_Path_38" data-name="&lt;Path&gt;" class="cls-25" d="M115,269.39a1.76,1.76,0,0,0-1.63.74,1.21,1.21,0,0,0,.25,1.26,2.45,2.45,0,0,0,1.16.66,7.69,7.69,0,0,0,4.3-.17,2.13,2.13,0,0,0,.7-.32.77.77,0,0,0,.34-.66.82.82,0,0,0-.43-.61,9,9,0,0,0-2.24-.66A9.62,9.62,0,0,0,115,269.39Z" transform="translate(-16.14 -30.21)"/><path id="_Path_39" data-name="&lt;Path&gt;" class="cls-26" d="M119.66,270.29a3.17,3.17,0,0,0-.46-.17,12.94,12.94,0,0,0-1.27-.3c-.27,0-.56-.11-.86-.15s-.63-.09-1-.12-.68,0-1,0a3.34,3.34,0,0,0-1,.16,1,1,0,0,0-.64.64,1.09,1.09,0,0,0,.18.87,2.59,2.59,0,0,0,1.51.86,7.23,7.23,0,0,0,1.28.2h.5a4.16,4.16,0,0,1-.5,0,5.52,5.52,0,0,1-1.32-.09,3.91,3.91,0,0,1-.86-.25,1.9,1.9,0,0,1-.82-.61,1.33,1.33,0,0,1-.25-1.1,1.08,1.08,0,0,1,.3-.53,1.62,1.62,0,0,1,.51-.32,3.61,3.61,0,0,1,1.11-.17c.36,0,.72,0,1.06.05a12.53,12.53,0,0,1,1.83.37,9.56,9.56,0,0,1,1.26.4c.14.06.25.13.33.17Z" transform="translate(-16.14 -30.21)"/><path id="_Path_40" data-name="&lt;Path&gt;" class="cls-27" d="M125,272.75a29.06,29.06,0,0,1-4.18,1.24,9.55,9.55,0,0,1-4.32-.05,2.94,2.94,0,0,0,1.45.93c-.08,1.33-.23,2.77-.39,4.1a9.36,9.36,0,0,0,5.2-1.55A5.21,5.21,0,0,0,125,272.75Z" transform="translate(-16.14 -30.21)"/><g id="_Group_7" data-name="&lt;Group&gt;"><path id="_Path_41" data-name="&lt;Path&gt;" class="cls-28" d="M118.47,276.05a.63.63,0,0,1,.23-.12l1-.3a6,6,0,0,1-1.34,0v-1.4a7.82,7.82,0,0,1-1.8-.26,2.94,2.94,0,0,0,1.45.93c-.08,1.26-.22,2.61-.36,3.88a19.27,19.27,0,0,1,.74-2.49A.55.55,0,0,1,118.47,276.05Z" transform="translate(-16.14 -30.21)"/><path id="_Path_42" data-name="&lt;Path&gt;" class="cls-28" d="M125,272.75l-.7.25c0,.28,0,.57,0,.86a.65.65,0,0,1-.11.43.72.72,0,0,1-.2.14l-1.42.75a11.34,11.34,0,0,0,1.74-.32,4.77,4.77,0,0,1-.08,1A5,5,0,0,0,125,272.75Z" transform="translate(-16.14 -30.21)"/></g><path id="_Path_43" data-name="&lt;Path&gt;" class="cls-8" d="M130.25,281.74c-.16-.71-.31-1.52-.54-2.21-3.52,1.31-7,2.82-10.34,4.45a19.36,19.36,0,0,1,.06,3.23,5.67,5.67,0,0,0,1.12-.7c.28.52.68,1,1,1.47C124.09,285.89,127.48,283.59,130.25,281.74Z" transform="translate(-16.14 -30.21)"/><g id="_Group_8" data-name="&lt;Group&gt;"><path id="_Path_44" data-name="&lt;Path&gt;" class="cls-19" d="M119.43,287.21a5.67,5.67,0,0,0,1.12-.7L119.37,284A19.36,19.36,0,0,1,119.43,287.21Z" transform="translate(-16.14 -30.21)"/></g><path id="_Path_45" data-name="&lt;Path&gt;" class="cls-17" d="M130.25,281.74c-1.41.22-2.12,1.52-2.67,2.71-3.64,7.86-4.61,16.7-7.84,24.73a4.45,4.45,0,0,1-1.08,1.78,4,4,0,0,1-1.94.81,22.28,22.28,0,0,1-4.9.22l-9.68-.25a13,13,0,0,0-.56,5.24c6.35,3.74,13.78,5.41,21.12,6,2.79.25,5.83.18,8-1.53,2.63-2,3.24-5.7,3.65-9,.65-5.2,1.3-10.46.8-15.68C134.64,291.12,132.11,281.46,130.25,281.74Z" transform="translate(-16.14 -30.21)"/><g id="_Group_9" data-name="&lt;Group&gt;"><path id="_Path_46" data-name="&lt;Path&gt;" class="cls-18" d="M117.78,313a1.41,1.41,0,0,1,.9-.2,1.21,1.21,0,0,1,.52.38A38.78,38.78,0,0,1,123,317.9a8.88,8.88,0,0,0-3.4-6.55A11.72,11.72,0,0,1,124.9,313a11.91,11.91,0,0,0-5-2.76c3.07-3.19,4-7.78,5.15-12.06,1.43-5.56,3.26-11,5.09-16.45-1.33.27-2,1.53-2.56,2.69-3.64,7.86-4.61,16.7-7.84,24.73a4.45,4.45,0,0,1-1.08,1.78,4,4,0,0,1-1.94.81,22.28,22.28,0,0,1-4.9.22l-9.68-.25a2.17,2.17,0,0,1-.07.24l10.55,1.32A9.89,9.89,0,0,0,117.78,313Z" transform="translate(-16.14 -30.21)"/></g><path id="_Path_47" data-name="&lt;Path&gt;" class="cls-18" d="M128.5,307.46a5.4,5.4,0,0,0-4,.4c-1.25.56-2.38,1.37-3.63,1.95C123.21,309,126.25,308.42,128.5,307.46Z" transform="translate(-16.14 -30.21)"/><path id="_Path_48" data-name="&lt;Path&gt;" class="cls-18" d="M121.27,299.67a14.53,14.53,0,0,1-1.9,2.8,6,6,0,0,1-1.8-.1,15.51,15.51,0,0,1-4.71-2.81c.69-1.09,1.44-2.16,2.22-3.18C116.92,297.34,119.44,298.7,121.27,299.67Z" transform="translate(-16.14 -30.21)"/><path id="_Path_49" data-name="&lt;Path&gt;" class="cls-15" d="M93.43,286.37a1.12,1.12,0,0,0-1-.27,1.21,1.21,0,0,0-.36.28l-.85.88a.33.33,0,0,0-.12.21.3.3,0,0,0,.08.17,10.07,10.07,0,0,0,2.63,2.41.62.62,0,0,0,.25.11.63.63,0,0,0,.4-.17C96.31,288.6,94.88,287.42,93.43,286.37Z" transform="translate(-16.14 -30.21)"/><path id="_Path_50" data-name="&lt;Path&gt;" class="cls-16" d="M93.43,286.37l-.31-.19.33.21Z" transform="translate(-16.14 -30.21)"/><path id="_Path_51" data-name="&lt;Path&gt;" class="cls-16" d="M93.61,286.51c.83.85,1.86,2.66.37,3.63l0,0a.63.63,0,0,0,.4-.17C96.23,288.66,95,287.52,93.61,286.51Z" transform="translate(-16.14 -30.21)"/><path id="_Path_52" data-name="&lt;Path&gt;" class="cls-15" d="M91.66,288.28a1.36,1.36,0,0,0-1-.22c-.41.12-.6.58-.72,1a.68.68,0,0,0,0,.42.64.64,0,0,0,.19.21,9.44,9.44,0,0,0,2.46,1.42.75.75,0,0,0,.38.08c.25,0,.4-.28.51-.49a1.61,1.61,0,0,0,.25-.66C93.78,289.22,92.21,288.58,91.66,288.28Z" transform="translate(-16.14 -30.21)"/><path id="_Path_53" data-name="&lt;Path&gt;" class="cls-16" d="M91.66,288.28a1.36,1.36,0,0,0-1-.22.65.65,0,0,0-.27.15c1.38.65,2.64,1.59,2.39,3a.43.43,0,0,0,.16,0c.25,0,.4-.28.51-.49a1.61,1.61,0,0,0,.25-.66C93.78,289.22,92.21,288.58,91.66,288.28Z" transform="translate(-16.14 -30.21)"/><path id="_Path_54" data-name="&lt;Path&gt;" class="cls-10" d="M122.66,333a1.08,1.08,0,0,1-1.07-.29c.15-1.62.24-3.24.27-4.87a4,4,0,0,0,1-.06C122.79,329.33,122.67,331.35,122.66,333Z" transform="translate(-16.14 -30.21)"/><path id="_Path_55" data-name="&lt;Path&gt;" class="cls-10" d="M124.47,327.85c-.23,0-.43.22-.66.24a21.26,21.26,0,0,0,.18,4.65l.93-.09Z" transform="translate(-16.14 -30.21)"/><path id="_Path_56" data-name="&lt;Path&gt;" class="cls-15" d="M125.22,328.84a4.54,4.54,0,0,1-4.08-.6,26.72,26.72,0,0,1-.28-3.23c1.76.15,3.37.28,5.12.57C125.78,326.63,125.45,327.79,125.22,328.84Z" transform="translate(-16.14 -30.21)"/><path id="_Path_57" data-name="&lt;Path&gt;" class="cls-9" d="M102.84,372.06l.5-1.57a3.25,3.25,0,0,0,.27-1.55,41,41,0,0,0-6.33-3,9.18,9.18,0,0,0-1-.23l-.39,4c.2.06.22.16.42.23l6.09,1.94C102.47,371.93,102.92,372.13,102.84,372.06Z" transform="translate(-16.14 -30.21)"/><path id="_Path_58" data-name="&lt;Path&gt;" class="cls-10" d="M97.28,366a9.18,9.18,0,0,0-1-.23l-.39,4c.2.06.22.16.42.23l.77.24c.14-1.38.29-2.77.49-4.12Z" transform="translate(-16.14 -30.21)"/><path id="_Path_59" data-name="&lt;Path&gt;" class="cls-29" d="M101.53,367.43a2,2,0,0,1-.42.7,4.08,4.08,0,0,0-1.2-.55,7.56,7.56,0,0,0-.86,2.1,2.51,2.51,0,0,0,0,.67,6.81,6.81,0,0,0,1.24.45,1,1,0,0,1-.26.77,3.48,3.48,0,0,1-1.72-.81,9.78,9.78,0,0,1,1.21-4.25A8.55,8.55,0,0,1,101.53,367.43Z" transform="translate(-16.14 -30.21)"/><path id="_Path_60" data-name="&lt;Path&gt;" class="cls-27" d="M100.7,369c-.09-.09-.22-.13-.3-.22l-.41-.23a1.39,1.39,0,0,0-.58-.26c-.17,0-.4,0-.43.19s.11.25.23.32a3.69,3.69,0,0,0,1.39.5h.09C100.81,369.29,100.79,369.11,100.7,369Z" transform="translate(-16.14 -30.21)"/><g id="_Group_10" data-name="&lt;Group&gt;"><path id="_Path_61" data-name="&lt;Path&gt;" class="cls-24" d="M126.34,261.66l-.2,1.62a3.55,3.55,0,0,0,2.09,4.64,8.7,8.7,0,0,0,.9,3.76,19.14,19.14,0,0,0,3.13-5.75c.5-1.48.78-3.26-.17-4.5A4.39,4.39,0,0,0,129,260a3.13,3.13,0,0,0-1.69.18A2,2,0,0,0,126.34,261.66Z" transform="translate(-16.14 -30.21)"/><path id="_Path_62" data-name="&lt;Path&gt;" class="cls-29" d="M124.54,262.92a66.42,66.42,0,0,1,8.9,4.22l.11-.18c.92-1.55.27-3.3.51-5.1Z" transform="translate(-16.14 -30.21)"/><path id="_Path_63" data-name="&lt;Path&gt;" class="cls-11" d="M137.74,264.33a93.32,93.32,0,0,0-30.83,1l4.25-3a25.22,25.22,0,0,1,.23-5.63,7.81,7.81,0,0,1,2.55-4.66,10.21,10.21,0,0,1,4.54-1.81,39.23,39.23,0,0,1,9.36-.73c2.1.09,4.31.39,5.94,1.7a7.59,7.59,0,0,1,2.53,5.27,22.6,22.6,0,0,1-.49,6Z" transform="translate(-16.14 -30.21)"/><g id="_Group_11" data-name="&lt;Group&gt;"><path id="_Path_64" data-name="&lt;Path&gt;" class="cls-30" d="M112.44,262.14c1.58-.25,4.53-.64,8.33-.88,0,0-1.25-8.83,6.17-11.75-.84,0-1.67,0-2.5,0C117.54,250.5,111.76,254.15,112.44,262.14Z" transform="translate(-16.14 -30.21)"/></g><g id="_Group_12" data-name="&lt;Group&gt;"><path id="_Path_65" data-name="&lt;Path&gt;" class="cls-31" d="M111.16,262.36c.79-.2,1.58-.35,2.37-.5s1.6-.27,2.4-.39,1.6-.21,2.41-.29,1.61-.15,2.41-.2l-.27.32c0-.31-.06-.61-.07-.92s0-.6,0-.91a14,14,0,0,1,.15-1.82,13.44,13.44,0,0,1,.39-1.78q.14-.44.3-.87t.36-.84c.13-.28.29-.54.44-.8s.33-.52.52-.76l.28-.36c.1-.11.19-.24.3-.34l.32-.33.34-.31c.23-.2.47-.38.72-.56s.5-.33.77-.47a6.09,6.09,0,0,1,.81-.4,8.53,8.53,0,0,1,.84-.32c-.27.13-.54.26-.8.41a8.5,8.5,0,0,0-.75.47,7.17,7.17,0,0,0-.71.52l-.33.3a3,3,0,0,0-.32.3l-.31.31-.28.34c-.1.1-.18.23-.27.34a2.9,2.9,0,0,0-.25.36,7,7,0,0,0-.46.74c-.14.26-.27.51-.39.78s-.22.54-.32.81a8,8,0,0,0-.26.83c-.08.29-.15.57-.21.85s-.11.58-.15.87a17,17,0,0,0-.14,1.74c0,.3,0,.59,0,.88a7.88,7.88,0,0,0,.07.86l0,.31-.3,0c-.81.05-1.61.09-2.41.15l-2.41.18c-.8.06-1.6.15-2.4.22S112,262.26,111.16,262.36Z" transform="translate(-16.14 -30.21)"/></g><path id="_Path_66" data-name="&lt;Path&gt;" class="cls-27" d="M117.07,254a5,5,0,0,0-3.38,4.63h1.2a6.39,6.39,0,0,1,.22-2.47A4.94,4.94,0,0,1,117.07,254Z" transform="translate(-16.14 -30.21)"/><path id="_Path_67" data-name="&lt;Path&gt;" class="cls-30" d="M126.81,261.27c0-1,0-2,.08-2.93a8.23,8.23,0,0,1,3.45.32c-1,0-2.15.11-3.1.16A13.67,13.67,0,0,1,126.81,261.27Z" transform="translate(-16.14 -30.21)"/><path id="_Path_68" data-name="&lt;Path&gt;" class="cls-31" d="M135.82,262.46s-.24-.07-.65-.16l-.74-.15-1-.17c-.71-.11-1.55-.22-2.44-.31-.45-.05-.92-.08-1.39-.12l-1.43-.08-1.44-.05h-2.69l-1.16.05c-.72,0-1.32.07-1.74.09l-.66,0,0-.59.66,0c.43,0,1,0,1.76,0h1.17l1.31,0,1.4.06,1.44.11,1.43.14c.47.06.94.1,1.39.17.9.12,1.73.27,2.44.41l1,.21.74.18C135.59,262.38,135.82,262.46,135.82,262.46Z" transform="translate(-16.14 -30.21)"/></g><path id="_Path_69" data-name="&lt;Path&gt;" class="cls-20" d="M132.27,264.65a2.32,2.32,0,0,1,1.13-.36,1.19,1.19,0,0,1,1,.52,1.69,1.69,0,0,1,.17.89,6.76,6.76,0,0,1-5.73,6.53c-.26,0,1-4,1.06-4.31A5.29,5.29,0,0,1,132.27,264.65Z" transform="translate(-16.14 -30.21)"/><path id="_Path_70" data-name="&lt;Path&gt;" class="cls-21" d="M132.47,266.45a1.11,1.11,0,0,1,.68-.28c.26,0,.51.23.46.48a1.69,1.69,0,0,0-1.85,1,.65.65,0,0,1,.59.05.63.63,0,0,1,.26.53,1.73,1.73,0,0,0-.64,0,.34.34,0,0,0-.31.17.43.43,0,0,0,0,.25c.2,1-1.34,1.89-1,.64A5.4,5.4,0,0,1,132.47,266.45Z" transform="translate(-16.14 -30.21)"/><path id="_Path_71" data-name="&lt;Path&gt;" class="cls-15" d="M94.1,299.92a10.37,10.37,0,0,0,4.14-4.67,12.89,12.89,0,0,1-1-2.77,3.49,3.49,0,0,0,.64-2.53A4.5,4.5,0,0,0,97,287.7a1.52,1.52,0,0,0-.82-.64,1.74,1.74,0,0,0-1.26.44l-1.69,1.15a1.35,1.35,0,0,0-.4.39c-.2.43.19.9.54,1.21a1.17,1.17,0,0,0,.49.31c.48.1.88-.41,1.36-.46a4.83,4.83,0,0,0-1.26,1.62,1.74,1.74,0,0,0,.28,1.93,1.74,1.74,0,0,0-1.32.9,2.6,2.6,0,0,0-.11,1.27,15,15,0,0,0,1,4.27C93.87,300,94.2,300,94.1,299.92Z" transform="translate(-16.14 -30.21)"/></g></g></g><text class="cls-32" transform="translate(97.55 231.26) scale(1.08 1)">T</text></g></svg>