<?xml version="1.0" encoding="iso-8859-1"?>
<!-- Generator: Adobe Illustrator 22.1.0, SVG Export Plug-In . SVG Version: 6.00 Build 0)  -->
<svg version="1.1" xmlns="http://www.w3.org/2000/svg" xmlns:xlink="http://www.w3.org/1999/xlink" x="0px" y="0px"
	 viewBox="0 0 200 200" style="enable-background:new 0 0 200 200;" xml:space="preserve">
<g id="Layer_1">
	<circle style="fill:none;stroke:#D94F2B;stroke-width:3;stroke-miterlimit:10;" cx="100" cy="100" r="49.445"/>
</g>
<g id="Layer_2" style="display:none;">
	<path style="display:inline;fill:#D94F2B;stroke:#D94F2B;stroke-miterlimit:10;" d="M91.72,85.18l-5.46,5.61l37.095,38.01
		l5.445-5.61L91.72,85.18z M88.75,71.2h5.55v10.2h-5.55V71.2z M88.75,100.9h5.55v10.2h-5.55V100.9z M102.1,88h10.35v5.55H102.1V88z
		 M107.44,78.97l-3.855-3.945L96.52,82.27l3.84,3.93L107.44,78.97z M86.92,82.27l-7.065-7.245l-3.84,3.945l7.065,7.23L86.92,82.27z
		 M76.015,103.285l3.84,3.93l7.065-7.23l-3.84-3.945L76.015,103.285z M71.2,88h9.75v5.55H71.2V88z"/>
</g>
<g id="Layer_3">
	<path style="fill:#D94F2B;stroke:#D94F2B;stroke-miterlimit:10;" d="M99.964,78.4c-12.06,0-21.57,7.59-32.94,19.995
		c-0.825,0.915-0.84,2.28-0.015,3.195c9.735,10.755,18.315,20.01,32.955,20.01c14.46,0,25.305-11.655,33.015-20.1
		c0.795-0.87,0.84-2.19,0.075-3.105C125.194,88.87,114.319,78.4,99.964,78.4z M100.624,113.485c-7.95,0.36-14.49-6.18-14.115-14.115
		c0.315-6.93,5.925-12.54,12.855-12.855c7.95-0.36,14.49,6.18,14.115,14.115C113.164,107.56,107.554,113.17,100.624,113.485
		L100.624,113.485z"/>
	<path style="fill:#D94F2B;stroke:#D94F2B;stroke-miterlimit:10;" d="M99.999,92.951c0-0.9,0.165-1.755,0.465-2.535
		c-0.15,0-0.3-0.015-0.465-0.015c-5.535,0-9.99,4.71-9.57,10.335c0.36,4.695,4.14,8.475,8.835,8.835
		c5.625,0.42,10.335-4.035,10.335-9.57c0-0.195-0.015-0.39-0.015-0.585c-0.84,0.375-1.755,0.585-2.73,0.585
		C103.074,100.001,99.999,96.836,99.999,92.951L99.999,92.951z"/>
</g>
<g id="Layer_4" style="display:none;">
	<path style="display:inline;fill:#D94F2B;stroke:#D94F2B;stroke-miterlimit:10;" d="M127.2,71.2c-0.326,0-0.659,0.205-1.376,0.481
		L109.6,77.92L90.4,71.2l-18.08,6.08c-0.641,0.161-1.12,0.8-1.12,1.6v48.32c0,0.959,0.641,1.6,1.6,1.6
		c0.274,0,0.976-0.35,1.363-0.498L90.4,122.08l19.2,6.72l18.08-6.08c0.641-0.161,1.12-0.8,1.12-1.6V72.8
		C128.8,71.841,128.159,71.2,127.2,71.2z M109.6,122.4l-19.2-6.72V77.6l19.2,6.72V122.4z"/>
</g>
</svg>
