<?xml version="1.0" encoding="iso-8859-1"?>
<!-- Generator: Adobe Illustrator 22.1.0, SVG Export Plug-In . SVG Version: 6.00 Build 0)  -->
<svg version="1.1" id="Layer_1" xmlns="http://www.w3.org/2000/svg" xmlns:xlink="http://www.w3.org/1999/xlink" x="0px" y="0px"
	 viewBox="0 0 200 200" style="enable-background:new 0 0 200 200;" xml:space="preserve">
<circle style="fill:none;stroke:#D94F2B;stroke-width:3;stroke-miterlimit:10;" cx="100" cy="100" r="49.445"/>
<g>
	<path style="fill:#D94F2B;stroke:#D94F2B;stroke-miterlimit:10;" d="M106.062,116.8c0.868-1.974,2.842-3.36,5.138-3.36
		c2.296,0,4.27,1.386,5.138,3.36h10.542c1.232,0,2.24,1.008,2.24,2.24c0,1.232-1.008,2.24-2.24,2.24h-10.542
		c-0.868,1.974-2.842,3.36-5.138,3.36c-2.296,0-4.27-1.386-5.138-3.36H73.12c-1.232,0-2.24-1.008-2.24-2.24
		c0-1.232,1.008-2.24,2.24-2.24H106.062z M83.662,97.76c0.868-1.974,2.842-3.36,5.138-3.36c2.296,0,4.27,1.386,5.138,3.36h32.942
		c1.232,0,2.24,1.008,2.24,2.24c0,1.232-1.008,2.24-2.24,2.24H93.938c-0.868,1.974-2.842,3.36-5.138,3.36
		c-2.296,0-4.27-1.386-5.138-3.36H73.12c-1.232,0-2.24-1.008-2.24-2.24s1.008-2.24,2.24-2.24H83.662z M106.062,78.72
		c0.868-1.974,2.842-3.36,5.138-3.36c2.296,0,4.27,1.386,5.138,3.36h10.542c1.232,0,2.24,1.008,2.24,2.24s-1.008,2.24-2.24,2.24
		h-10.542c-0.868,1.974-2.842,3.36-5.138,3.36c-2.296,0-4.27-1.386-5.138-3.36H73.12c-1.232,0-2.24-1.008-2.24-2.24
		s1.008-2.24,2.24-2.24H106.062z"/>
</g>
</svg>
