<?xml version="1.0" encoding="iso-8859-1"?>
<!-- Generator: Adobe Illustrator 22.1.0, SVG Export Plug-In . SVG Version: 6.00 Build 0)  -->
<svg version="1.1" id="Layer_1" xmlns="http://www.w3.org/2000/svg" xmlns:xlink="http://www.w3.org/1999/xlink" x="0px" y="0px"
	 viewBox="0 0 200 200" style="enable-background:new 0 0 200 200;" xml:space="preserve">
<path style="fill:#D94F2B;" d="M100,68.32c-20.41,0-36.96,16.533-36.96,36.943c0,9.405,3.514,17.985,9.289,24.503
	c0.182,0.198,0.347,0.396,0.528,0.577c0.792,0.841,1.897,1.336,3.053,1.336c1.171,0,2.277-0.495,3.069-1.353
	c5.214-5.676,12.705-9.223,21.021-9.223s15.807,3.564,21.021,9.223c0.792,0.858,1.898,1.353,3.069,1.353
	c1.155,0,2.261-0.478,3.053-1.336c0.181-0.198,0.346-0.38,0.528-0.577c5.775-6.518,9.29-15.098,9.29-24.503
	C136.96,84.853,120.41,68.32,100,68.32z M97.69,75.894c0-1.271,1.039-2.31,2.31-2.31s2.31,1.039,2.31,2.31v5.94
	c0,1.271-1.039,2.31-2.31,2.31s-2.31-1.04-2.31-2.31C97.69,81.833,97.69,75.894,97.69,75.894z M76.57,107.574h-5.94
	c-1.271,0-2.31-1.039-2.31-2.31c0-1.271,1.039-2.31,2.31-2.31h5.94c1.271,0,2.31,1.039,2.31,2.31
	C78.88,106.534,77.84,107.574,76.57,107.574z M85.067,90.331c-0.891,0.891-2.376,0.891-3.267,0l-4.207-4.191
	c-0.891-0.891-0.891-2.376,0-3.267c0.891-0.891,2.376-0.891,3.267,0l4.207,4.207C85.958,87.971,85.958,89.44,85.067,90.331z
	 M111.566,96.023l-7.837,12.458c-0.313,0.429-0.71,0.841-1.155,1.155c-2.227,1.601-5.329,1.072-6.93-1.155
	c-1.6-2.228-1.072-5.329,1.155-6.93l12.457-7.838c0.561-0.396,1.337-0.412,1.931,0C111.93,94.242,112.095,95.281,111.566,96.023z
	 M118.2,90.331c-0.891,0.891-2.376,0.891-3.267,0s-0.891-2.376,0-3.267l4.208-4.207c0.891-0.891,2.376-0.891,3.267,0
	s0.891,2.376,0,3.267L118.2,90.331z M129.37,107.574h-5.94c-1.271,0-2.31-1.039-2.31-2.31c0-1.271,1.039-2.31,2.31-2.31h5.94
	c1.271,0,2.31,1.039,2.31,2.31C131.68,106.534,130.641,107.574,129.37,107.574z"/>
<circle style="fill:none;stroke:#D94F2B;stroke-width:3;stroke-miterlimit:10;" cx="100" cy="100" r="49.445"/>
</svg>
